<mxfile host="Electron" modified="2023-06-04T15:19:11.404Z" agent="Mozilla/5.0 (X11; Linux x86_64) AppleWebKit/537.36 (KHTML, like Gecko) draw.io/21.2.8 Chrome/106.0.5249.199 Electron/21.4.4 Safari/537.36" etag="hFVLquFr2fwrSMWqCxHF" version="21.2.8" type="device">
  <diagram id="R2lEEEUBdFMjLlhIrx00" name="Page-1">
    <mxGraphModel dx="1434" dy="1937" grid="1" gridSize="10" guides="1" tooltips="1" connect="1" arrows="1" fold="1" page="1" pageScale="1" pageWidth="850" pageHeight="1100" math="0" shadow="0" extFonts="Permanent Marker^https://fonts.googleapis.com/css?family=Permanent+Marker">
      <root>
        <mxCell id="0" />
        <mxCell id="1" parent="0" />
        <mxCell id="dGH4nLoNUZqJJpZ4LQTq-1" value="Equipo" style="rounded=0;whiteSpace=wrap;html=1;" parent="1" vertex="1">
          <mxGeometry x="120" y="120" width="120" height="60" as="geometry" />
        </mxCell>
        <mxCell id="dGH4nLoNUZqJJpZ4LQTq-2" value="Jugador" style="rounded=0;whiteSpace=wrap;html=1;" parent="1" vertex="1">
          <mxGeometry x="610" y="120" width="120" height="60" as="geometry" />
        </mxCell>
        <mxCell id="dGH4nLoNUZqJJpZ4LQTq-3" value="" style="endArrow=none;html=1;rounded=0;exitX=1;exitY=0.5;exitDx=0;exitDy=0;" parent="1" source="dGH4nLoNUZqJJpZ4LQTq-1" target="dGH4nLoNUZqJJpZ4LQTq-4" edge="1">
          <mxGeometry width="50" height="50" relative="1" as="geometry">
            <mxPoint x="400" y="460" as="sourcePoint" />
            <mxPoint x="450" y="410" as="targetPoint" />
          </mxGeometry>
        </mxCell>
        <mxCell id="dGH4nLoNUZqJJpZ4LQTq-4" value="Juega" style="rhombus;whiteSpace=wrap;html=1;" parent="1" vertex="1">
          <mxGeometry x="385" y="110" width="80" height="80" as="geometry" />
        </mxCell>
        <mxCell id="dGH4nLoNUZqJJpZ4LQTq-5" value="" style="endArrow=none;html=1;rounded=0;exitX=1;exitY=0.5;exitDx=0;exitDy=0;" parent="1" edge="1">
          <mxGeometry width="50" height="50" relative="1" as="geometry">
            <mxPoint x="466" y="150" as="sourcePoint" />
            <mxPoint x="611" y="150" as="targetPoint" />
          </mxGeometry>
        </mxCell>
        <mxCell id="dGH4nLoNUZqJJpZ4LQTq-6" value="1...1" style="text;html=1;strokeColor=none;fillColor=none;align=center;verticalAlign=middle;whiteSpace=wrap;rounded=0;" parent="1" vertex="1">
          <mxGeometry x="230" y="120" width="60" height="30" as="geometry" />
        </mxCell>
        <mxCell id="dGH4nLoNUZqJJpZ4LQTq-7" value="0...24" style="text;html=1;strokeColor=none;fillColor=none;align=center;verticalAlign=middle;whiteSpace=wrap;rounded=0;" parent="1" vertex="1">
          <mxGeometry x="560" y="120" width="60" height="30" as="geometry" />
        </mxCell>
        <mxCell id="dGH4nLoNUZqJJpZ4LQTq-8" value="1-24" style="text;html=1;strokeColor=none;fillColor=none;align=center;verticalAlign=middle;whiteSpace=wrap;rounded=0;" parent="1" vertex="1">
          <mxGeometry x="396" y="80" width="60" height="30" as="geometry" />
        </mxCell>
        <mxCell id="dGH4nLoNUZqJJpZ4LQTq-9" value="" style="endArrow=none;html=1;rounded=0;entryX=0.5;entryY=1;entryDx=0;entryDy=0;exitX=0.25;exitY=0;exitDx=0;exitDy=0;" parent="1" source="dGH4nLoNUZqJJpZ4LQTq-2" target="dGH4nLoNUZqJJpZ4LQTq-11" edge="1">
          <mxGeometry width="50" height="50" relative="1" as="geometry">
            <mxPoint x="640" y="120" as="sourcePoint" />
            <mxPoint x="653.1801948466052" y="54.14213562373095" as="targetPoint" />
          </mxGeometry>
        </mxCell>
        <mxCell id="dGH4nLoNUZqJJpZ4LQTq-11" value="" style="ellipse;whiteSpace=wrap;html=1;aspect=fixed;fillColor=#000000;" parent="1" vertex="1">
          <mxGeometry x="630" width="20" height="20" as="geometry" />
        </mxCell>
        <mxCell id="dGH4nLoNUZqJJpZ4LQTq-14" value="id" style="text;html=1;strokeColor=none;fillColor=none;align=center;verticalAlign=middle;whiteSpace=wrap;rounded=0;" parent="1" vertex="1">
          <mxGeometry x="630" y="-10" width="60" height="30" as="geometry" />
        </mxCell>
        <mxCell id="dGH4nLoNUZqJJpZ4LQTq-17" value="nombre" style="text;html=1;strokeColor=none;fillColor=none;align=center;verticalAlign=middle;whiteSpace=wrap;rounded=0;" parent="1" vertex="1">
          <mxGeometry x="679" y="15" width="60" height="30" as="geometry" />
        </mxCell>
        <mxCell id="dGH4nLoNUZqJJpZ4LQTq-18" value="" style="endArrow=none;html=1;rounded=0;exitX=0.25;exitY=0;exitDx=0;exitDy=0;" parent="1" target="dGH4nLoNUZqJJpZ4LQTq-16" edge="1">
          <mxGeometry width="50" height="50" relative="1" as="geometry">
            <mxPoint x="669" y="120" as="sourcePoint" />
            <mxPoint x="669" y="10" as="targetPoint" />
          </mxGeometry>
        </mxCell>
        <mxCell id="dGH4nLoNUZqJJpZ4LQTq-16" value="" style="ellipse;whiteSpace=wrap;html=1;aspect=fixed;" parent="1" vertex="1">
          <mxGeometry x="659" y="20" width="20" height="20" as="geometry" />
        </mxCell>
        <mxCell id="dGH4nLoNUZqJJpZ4LQTq-19" value="apellidos" style="text;html=1;strokeColor=none;fillColor=none;align=center;verticalAlign=middle;whiteSpace=wrap;rounded=0;" parent="1" vertex="1">
          <mxGeometry x="700" y="47" width="60" height="30" as="geometry" />
        </mxCell>
        <mxCell id="dGH4nLoNUZqJJpZ4LQTq-20" value="" style="endArrow=none;html=1;rounded=0;exitX=0.25;exitY=0;exitDx=0;exitDy=0;" parent="1" target="dGH4nLoNUZqJJpZ4LQTq-21" edge="1">
          <mxGeometry width="50" height="50" relative="1" as="geometry">
            <mxPoint x="691" y="120" as="sourcePoint" />
            <mxPoint x="691" y="10" as="targetPoint" />
          </mxGeometry>
        </mxCell>
        <mxCell id="dGH4nLoNUZqJJpZ4LQTq-21" value="" style="ellipse;whiteSpace=wrap;html=1;aspect=fixed;" parent="1" vertex="1">
          <mxGeometry x="681" y="54" width="20" height="20" as="geometry" />
        </mxCell>
        <mxCell id="dGH4nLoNUZqJJpZ4LQTq-22" value="nacionalidad" style="text;html=1;strokeColor=none;fillColor=none;align=center;verticalAlign=middle;whiteSpace=wrap;rounded=0;" parent="1" vertex="1">
          <mxGeometry x="655" y="257" width="60" height="30" as="geometry" />
        </mxCell>
        <mxCell id="dGH4nLoNUZqJJpZ4LQTq-23" value="" style="endArrow=none;html=1;rounded=0;exitX=0.25;exitY=1;exitDx=0;exitDy=0;" parent="1" source="dGH4nLoNUZqJJpZ4LQTq-2" target="dGH4nLoNUZqJJpZ4LQTq-24" edge="1">
          <mxGeometry width="50" height="50" relative="1" as="geometry">
            <mxPoint x="643" y="284" as="sourcePoint" />
            <mxPoint x="643" y="174" as="targetPoint" />
          </mxGeometry>
        </mxCell>
        <mxCell id="dGH4nLoNUZqJJpZ4LQTq-24" value="" style="ellipse;whiteSpace=wrap;html=1;aspect=fixed;" parent="1" vertex="1">
          <mxGeometry x="630" y="258" width="20" height="20" as="geometry" />
        </mxCell>
        <mxCell id="dGH4nLoNUZqJJpZ4LQTq-26" value="edad" style="text;html=1;strokeColor=none;fillColor=none;align=center;verticalAlign=middle;whiteSpace=wrap;rounded=0;" parent="1" vertex="1">
          <mxGeometry x="723" y="74" width="60" height="30" as="geometry" />
        </mxCell>
        <mxCell id="dGH4nLoNUZqJJpZ4LQTq-27" value="" style="endArrow=none;html=1;rounded=0;" parent="1" target="dGH4nLoNUZqJJpZ4LQTq-28" edge="1">
          <mxGeometry width="50" height="50" relative="1" as="geometry">
            <mxPoint x="714" y="120" as="sourcePoint" />
            <mxPoint x="714" y="37" as="targetPoint" />
          </mxGeometry>
        </mxCell>
        <mxCell id="dGH4nLoNUZqJJpZ4LQTq-28" value="" style="ellipse;whiteSpace=wrap;html=1;aspect=fixed;" parent="1" vertex="1">
          <mxGeometry x="704" y="81" width="20" height="20" as="geometry" />
        </mxCell>
        <mxCell id="dGH4nLoNUZqJJpZ4LQTq-29" value="dorsal" style="text;html=1;strokeColor=none;fillColor=none;align=center;verticalAlign=middle;whiteSpace=wrap;rounded=0;" parent="1" vertex="1">
          <mxGeometry x="661" y="235" width="60" height="30" as="geometry" />
        </mxCell>
        <mxCell id="dGH4nLoNUZqJJpZ4LQTq-30" value="" style="endArrow=none;html=1;rounded=0;" parent="1" target="dGH4nLoNUZqJJpZ4LQTq-31" edge="1">
          <mxGeometry width="50" height="50" relative="1" as="geometry">
            <mxPoint x="660" y="180" as="sourcePoint" />
            <mxPoint x="663" y="151" as="targetPoint" />
          </mxGeometry>
        </mxCell>
        <mxCell id="dGH4nLoNUZqJJpZ4LQTq-31" value="" style="ellipse;whiteSpace=wrap;html=1;aspect=fixed;" parent="1" vertex="1">
          <mxGeometry x="650" y="235" width="20" height="20" as="geometry" />
        </mxCell>
        <mxCell id="dGH4nLoNUZqJJpZ4LQTq-32" value="apodo" style="text;html=1;strokeColor=none;fillColor=none;align=center;verticalAlign=middle;whiteSpace=wrap;rounded=0;" parent="1" vertex="1">
          <mxGeometry x="684" y="212" width="60" height="30" as="geometry" />
        </mxCell>
        <mxCell id="dGH4nLoNUZqJJpZ4LQTq-33" value="" style="endArrow=none;html=1;rounded=0;" parent="1" target="dGH4nLoNUZqJJpZ4LQTq-34" edge="1">
          <mxGeometry width="50" height="50" relative="1" as="geometry">
            <mxPoint x="681" y="180" as="sourcePoint" />
            <mxPoint x="684" y="133" as="targetPoint" />
          </mxGeometry>
        </mxCell>
        <mxCell id="dGH4nLoNUZqJJpZ4LQTq-34" value="" style="ellipse;whiteSpace=wrap;html=1;aspect=fixed;" parent="1" vertex="1">
          <mxGeometry x="671" y="217" width="20" height="20" as="geometry" />
        </mxCell>
        <mxCell id="dGH4nLoNUZqJJpZ4LQTq-35" value="" style="endArrow=none;html=1;rounded=0;exitX=0.75;exitY=1;exitDx=0;exitDy=0;" parent="1" source="dGH4nLoNUZqJJpZ4LQTq-2" target="dGH4nLoNUZqJJpZ4LQTq-36" edge="1">
          <mxGeometry width="50" height="50" relative="1" as="geometry">
            <mxPoint x="702" y="159" as="sourcePoint" />
            <mxPoint x="705" y="112" as="targetPoint" />
          </mxGeometry>
        </mxCell>
        <mxCell id="dGH4nLoNUZqJJpZ4LQTq-36" value="" style="ellipse;whiteSpace=wrap;html=1;aspect=fixed;" parent="1" vertex="1">
          <mxGeometry x="690" y="196" width="20" height="20" as="geometry" />
        </mxCell>
        <mxCell id="dGH4nLoNUZqJJpZ4LQTq-37" value="posicion" style="text;html=1;strokeColor=none;fillColor=none;align=center;verticalAlign=middle;whiteSpace=wrap;rounded=0;" parent="1" vertex="1">
          <mxGeometry x="704" y="187" width="60" height="30" as="geometry" />
        </mxCell>
        <mxCell id="dGH4nLoNUZqJJpZ4LQTq-38" value="" style="endArrow=none;html=1;rounded=0;exitX=1;exitY=0.5;exitDx=0;exitDy=0;" parent="1" source="dGH4nLoNUZqJJpZ4LQTq-2" edge="1">
          <mxGeometry width="50" height="50" relative="1" as="geometry">
            <mxPoint x="767" y="185" as="sourcePoint" />
            <mxPoint x="800" y="150" as="targetPoint" />
          </mxGeometry>
        </mxCell>
        <mxCell id="dGH4nLoNUZqJJpZ4LQTq-39" value="" style="ellipse;whiteSpace=wrap;html=1;aspect=fixed;" parent="1" vertex="1">
          <mxGeometry x="801" y="139" width="20" height="20" as="geometry" />
        </mxCell>
        <mxCell id="dGH4nLoNUZqJJpZ4LQTq-40" value="FK id_equipo" style="text;html=1;strokeColor=none;fillColor=none;align=center;verticalAlign=middle;whiteSpace=wrap;rounded=0;" parent="1" vertex="1">
          <mxGeometry x="821" y="135" width="60" height="30" as="geometry" />
        </mxCell>
        <mxCell id="dGH4nLoNUZqJJpZ4LQTq-41" value="" style="endArrow=none;html=1;rounded=0;entryX=0.5;entryY=1;entryDx=0;entryDy=0;exitX=0.25;exitY=0;exitDx=0;exitDy=0;" parent="1" target="dGH4nLoNUZqJJpZ4LQTq-42" edge="1">
          <mxGeometry width="50" height="50" relative="1" as="geometry">
            <mxPoint x="125" y="119" as="sourcePoint" />
            <mxPoint x="138.18019484660522" y="53.14213562373095" as="targetPoint" />
          </mxGeometry>
        </mxCell>
        <mxCell id="dGH4nLoNUZqJJpZ4LQTq-42" value="" style="ellipse;whiteSpace=wrap;html=1;aspect=fixed;fillColor=#000000;" parent="1" vertex="1">
          <mxGeometry x="115" y="-1" width="20" height="20" as="geometry" />
        </mxCell>
        <mxCell id="dGH4nLoNUZqJJpZ4LQTq-43" value="" style="endArrow=none;html=1;rounded=0;exitX=0.25;exitY=0;exitDx=0;exitDy=0;" parent="1" target="dGH4nLoNUZqJJpZ4LQTq-44" edge="1">
          <mxGeometry width="50" height="50" relative="1" as="geometry">
            <mxPoint x="154" y="119" as="sourcePoint" />
            <mxPoint x="154" y="9" as="targetPoint" />
          </mxGeometry>
        </mxCell>
        <mxCell id="dGH4nLoNUZqJJpZ4LQTq-44" value="" style="ellipse;whiteSpace=wrap;html=1;aspect=fixed;" parent="1" vertex="1">
          <mxGeometry x="144" y="19" width="20" height="20" as="geometry" />
        </mxCell>
        <mxCell id="dGH4nLoNUZqJJpZ4LQTq-45" value="id" style="text;html=1;strokeColor=none;fillColor=none;align=center;verticalAlign=middle;whiteSpace=wrap;rounded=0;" parent="1" vertex="1">
          <mxGeometry x="115" y="-10" width="60" height="30" as="geometry" />
        </mxCell>
        <mxCell id="dGH4nLoNUZqJJpZ4LQTq-46" value="nombre" style="text;html=1;strokeColor=none;fillColor=none;align=center;verticalAlign=middle;whiteSpace=wrap;rounded=0;" parent="1" vertex="1">
          <mxGeometry x="160" y="10" width="60" height="30" as="geometry" />
        </mxCell>
        <mxCell id="dGH4nLoNUZqJJpZ4LQTq-47" value="" style="endArrow=none;html=1;rounded=0;" parent="1" target="dGH4nLoNUZqJJpZ4LQTq-48" edge="1">
          <mxGeometry width="50" height="50" relative="1" as="geometry">
            <mxPoint x="179" y="120" as="sourcePoint" />
            <mxPoint x="179" y="33" as="targetPoint" />
          </mxGeometry>
        </mxCell>
        <mxCell id="dGH4nLoNUZqJJpZ4LQTq-48" value="" style="ellipse;whiteSpace=wrap;html=1;aspect=fixed;" parent="1" vertex="1">
          <mxGeometry x="169" y="43" width="20" height="20" as="geometry" />
        </mxCell>
        <mxCell id="dGH4nLoNUZqJJpZ4LQTq-49" value="pais" style="text;html=1;strokeColor=none;fillColor=none;align=center;verticalAlign=middle;whiteSpace=wrap;rounded=0;" parent="1" vertex="1">
          <mxGeometry x="175" y="38" width="60" height="30" as="geometry" />
        </mxCell>
        <mxCell id="dGH4nLoNUZqJJpZ4LQTq-50" value="" style="endArrow=none;html=1;rounded=0;" parent="1" target="dGH4nLoNUZqJJpZ4LQTq-51" edge="1">
          <mxGeometry width="50" height="50" relative="1" as="geometry">
            <mxPoint x="204" y="120" as="sourcePoint" />
            <mxPoint x="204" y="57" as="targetPoint" />
          </mxGeometry>
        </mxCell>
        <mxCell id="dGH4nLoNUZqJJpZ4LQTq-51" value="" style="ellipse;whiteSpace=wrap;html=1;aspect=fixed;" parent="1" vertex="1">
          <mxGeometry x="194" y="67" width="20" height="20" as="geometry" />
        </mxCell>
        <mxCell id="dGH4nLoNUZqJJpZ4LQTq-52" value="anyo_fundacion" style="text;html=1;strokeColor=none;fillColor=none;align=center;verticalAlign=middle;whiteSpace=wrap;rounded=0;" parent="1" vertex="1">
          <mxGeometry x="230" y="57" width="60" height="30" as="geometry" />
        </mxCell>
        <mxCell id="dGH4nLoNUZqJJpZ4LQTq-53" value="" style="endArrow=none;html=1;rounded=0;" parent="1" target="dGH4nLoNUZqJJpZ4LQTq-54" edge="1">
          <mxGeometry width="50" height="50" relative="1" as="geometry">
            <mxPoint x="223" y="120" as="sourcePoint" />
            <mxPoint x="223" y="77" as="targetPoint" />
          </mxGeometry>
        </mxCell>
        <mxCell id="dGH4nLoNUZqJJpZ4LQTq-54" value="" style="ellipse;whiteSpace=wrap;html=1;aspect=fixed;" parent="1" vertex="1">
          <mxGeometry x="213" y="87" width="20" height="20" as="geometry" />
        </mxCell>
        <mxCell id="dGH4nLoNUZqJJpZ4LQTq-55" value="liga" style="text;html=1;strokeColor=none;fillColor=none;align=center;verticalAlign=middle;whiteSpace=wrap;rounded=0;" parent="1" vertex="1">
          <mxGeometry x="220" y="80" width="60" height="30" as="geometry" />
        </mxCell>
      </root>
    </mxGraphModel>
  </diagram>
</mxfile>
